<svg width="372" height="28" viewBox="0 0 372 28" fill="none" xmlns="http://www.w3.org/2000/svg">
<path d="M4.18248 0.46817C4.69456 0.46817 4.86526 0.779701 4.86526 1.29891V11.3716H19.801V1.29891C19.801 0.675858 20.057 0.46817 20.4837 0.46817H23.8976C24.4097 0.46817 24.6657 0.779701 24.6657 1.29891V26.7403C24.6657 27.3634 24.4097 27.571 23.8976 27.571H20.4837C19.9716 27.571 19.801 27.2595 19.801 26.7403V16.4599H4.86526V26.7403C4.86526 27.3634 4.60921 27.571 4.18248 27.571H0.768605C0.256524 27.571 0.000488281 27.2595 0.000488281 26.7403V1.29891C0.000488281 0.675858 0.256524 0.46817 0.768605 0.46817H4.18248Z" fill="#D4BC6D"/>
<path d="M46.8573 0.468292C53.3436 0.468292 55.8187 3.27204 55.8187 10.7487V17.3946C55.8187 24.8713 53.3436 27.675 46.8573 27.675H36.957C30.4707 27.675 27.9956 24.8713 27.9956 17.3946V10.7487C27.9956 3.27204 30.4707 0.468292 36.957 0.468292H46.8573ZM32.9457 16.9792C32.9457 21.0291 33.8845 22.2752 37.2131 22.2752H46.6866C50.0151 22.2752 50.9539 21.0291 50.9539 16.9792V11.1641C50.9539 7.11421 50.0151 5.8681 46.6866 5.8681H37.2131C33.8845 5.8681 32.9457 7.11421 32.9457 11.1641V16.9792Z" fill="#D4BC6D"/>
<path d="M65.465 0.468292C67.3426 0.468292 68.0254 0.987508 68.8789 3.37588L75.5359 21.9637C75.6213 22.2752 75.7919 22.2752 75.9626 22.2752H76.304C76.5601 22.2752 76.6454 22.1714 76.7308 21.9637L83.3878 3.37588C84.2413 0.883665 84.9241 0.468292 86.8017 0.468292H90.2156C92.4346 0.468292 93.032 1.50672 93.032 4.51815V26.8443C93.032 27.4673 92.776 27.675 92.2639 27.675H89.0207C88.5086 27.675 88.3379 27.3635 88.3379 26.8443V6.49116C88.3379 6.17963 88.2526 6.07579 88.0819 6.07579H87.8258C87.5698 6.07579 87.4845 6.17963 87.3991 6.38731L80.9127 23.729C79.8886 26.5327 78.9498 27.5712 76.8161 27.5712H75.2799C73.1462 27.5712 72.2927 26.5327 71.1832 23.729L64.6969 6.38731C64.6115 6.17963 64.5262 6.07579 64.2701 6.07579H64.0141C63.8434 6.07579 63.758 6.17963 63.758 6.49116V26.7404C63.758 27.3635 63.502 27.5712 63.0753 27.5712H59.8321C59.32 27.5712 59.064 27.2596 59.064 26.7404V4.51815C59.064 1.61056 59.6614 0.468292 61.8804 0.468292H65.465Z" fill="#D4BC6D"/>
<path d="M119.315 0.468292C119.827 0.468292 120.084 0.779823 120.084 1.29904V5.03736C120.084 5.66042 119.827 5.8681 119.315 5.8681H105.404C102.075 5.8681 101.137 7.11421 101.137 11.1641V11.5794H119.145C119.657 11.5794 119.827 11.891 119.827 12.4102V15.5254C119.827 16.1485 119.571 16.3562 119.145 16.3562H101.137V16.9792C101.137 21.0291 102.075 22.2752 105.404 22.2752H119.315C119.827 22.2752 120.084 22.5867 120.084 23.1059V26.7404C120.084 27.3635 119.827 27.5712 119.315 27.5712H105.233C98.7468 27.5712 96.2717 24.7674 96.2717 17.2908V10.7487C96.2717 3.27204 98.7468 0.468292 105.233 0.468292H119.315Z" fill="#D4BC6D"/>
<path d="M147.399 0.468292C147.911 0.468292 148.167 0.779823 148.167 1.29904V5.1412C148.167 5.76426 147.911 6.07579 147.399 6.07579H137.413V26.8443C137.413 27.4673 137.157 27.675 136.73 27.675H133.231C132.719 27.675 132.548 27.3635 132.548 26.8443V6.07579H122.477C121.965 6.07579 121.709 5.76426 121.709 5.1412V1.29904C121.709 0.67598 121.965 0.468292 122.477 0.468292H147.399Z" fill="#D4BC6D"/>
<path d="M168.217 0.468292C174.703 0.468292 177.179 3.27204 177.179 10.7487V17.3946C177.179 24.8713 174.703 27.675 168.217 27.675H158.317C151.831 27.675 149.355 24.8713 149.355 17.3946V10.7487C149.355 3.27204 151.831 0.468292 158.317 0.468292H168.217ZM154.306 16.9792C154.306 21.0291 155.244 22.2752 158.573 22.2752H168.046C171.29 22.2752 172.314 21.0291 172.314 16.9792V11.1641C172.314 7.11421 171.375 5.8681 168.046 5.8681H158.573C155.33 5.8681 154.306 7.11421 154.306 11.1641V16.9792Z" fill="#D4BC6D"/>
<path d="M182.981 0.468292C183.237 0.468292 183.323 0.572135 183.408 0.987504L188.614 21.8598C188.614 22.0675 188.7 22.1714 188.87 22.1714H189.041C189.126 22.1714 189.212 22.1714 189.297 21.8598L194.503 2.75283C195.015 0.987505 195.698 0.468292 196.893 0.468292H200.051C201.416 0.468292 202.099 1.09135 202.611 2.75283L207.903 21.8598C207.988 22.0675 208.073 22.1714 208.159 22.1714H208.329C208.5 22.1714 208.5 22.1714 208.585 21.8598L213.621 0.987504C213.706 0.572135 213.877 0.468292 214.133 0.468292H218.4C218.742 0.468292 218.827 0.883664 218.656 1.40288L212.511 24.7674C211.914 27.052 211.231 27.675 210.036 27.675H206.281C205.001 27.675 204.489 27.052 203.806 24.7674L198.771 6.28347C198.771 6.07579 198.685 5.97195 198.515 5.97195H198.429C198.344 5.97195 198.173 6.07579 198.173 6.28347L193.138 24.7674C192.455 27.052 191.943 27.675 190.663 27.675H186.993C185.542 27.675 184.944 27.1558 184.347 24.7674L178.458 1.40288C178.373 0.883664 178.373 0.468292 178.714 0.468292H182.981Z" fill="#D4BC6D"/>
<path d="M226.512 0.468292C228.56 0.468292 228.987 0.77982 230.182 2.75283L242.045 21.6522C242.131 21.8598 242.301 21.9637 242.472 21.9637H242.728C242.899 21.9637 242.984 21.8598 242.984 21.5483V1.29904C242.984 0.67598 243.24 0.468292 243.667 0.468292H246.995C247.507 0.468292 247.678 0.779823 247.678 1.29904V23.6252C247.678 26.7404 246.739 27.675 244.776 27.675H242.045C240.082 27.675 239.655 27.4673 238.375 25.3905L226.597 6.38731C226.512 6.17963 226.341 6.07579 226.171 6.07579H225.915C225.744 6.07579 225.659 6.17963 225.659 6.49116V26.7404C225.659 27.3635 225.403 27.5712 224.976 27.5712H221.647C221.135 27.5712 220.879 27.2596 220.879 26.7404V4.51815C220.879 1.40288 221.818 0.468292 223.781 0.468292H226.512Z" fill="#D4BC6D"/>
<path d="M265.684 0.468292C266.196 0.468292 266.367 0.779823 266.367 1.29904V11.3717H281.303V1.29904C281.303 0.67598 281.559 0.468292 281.985 0.468292H285.399C285.911 0.468292 286.167 0.779823 286.167 1.29904V26.7404C286.167 27.3635 285.911 27.5712 285.399 27.5712H281.985C281.473 27.5712 281.303 27.2596 281.303 26.7404V16.46H266.367V26.7404C266.367 27.3635 266.111 27.5712 265.684 27.5712H262.27C261.758 27.5712 261.502 27.2596 261.502 26.7404V1.29904C261.502 0.67598 261.758 0.468292 262.27 0.468292H265.684Z" fill="#D4BC6D"/>
<path d="M312.454 0.468292C312.966 0.468292 313.222 0.779823 313.222 1.29904V5.03736C313.222 5.66042 312.966 5.8681 312.454 5.8681H298.542C295.213 5.8681 294.275 7.11421 294.275 11.1641V11.5794H312.283C312.795 11.5794 312.966 11.891 312.966 12.4102V15.5254C312.966 16.1485 312.71 16.3562 312.283 16.3562H294.275V16.9792C294.275 21.0291 295.213 22.2752 298.542 22.2752H312.454C312.966 22.2752 313.222 22.5867 313.222 23.1059V26.7404C313.222 27.3635 312.966 27.5712 312.454 27.5712H298.371C291.885 27.5712 289.41 24.7674 289.41 17.2908V10.7487C289.41 3.27204 291.885 0.468292 298.371 0.468292H312.454Z" fill="#D4BC6D"/>
<path d="M334.387 0.468292C339.252 0.468292 341.215 3.27204 341.215 8.46416V10.6449C341.215 15.1101 339.849 17.7061 336.435 18.433L341.897 26.6366C342.068 26.9481 342.068 27.5712 341.471 27.5712H337.374C336.862 27.5712 336.691 27.4673 336.52 27.052L331.485 18.9523H321.158V26.6366C321.158 27.2596 320.902 27.4673 320.475 27.4673H317.061C316.549 27.4673 316.293 27.1558 316.293 26.6366V1.61056C316.293 0.883664 316.635 0.468292 317.232 0.468292H334.387ZM321.158 14.2793H333.363C335.496 14.2793 336.35 13.1371 336.35 10.8525V9.19106C336.35 6.90653 335.582 5.76426 333.363 5.76426H321.585C321.329 5.76426 321.158 5.8681 321.158 6.17963V14.2793Z" fill="#D4BC6D"/>
<path d="M362.466 0.468292C368.953 0.468292 371.428 3.27204 371.428 10.7487V17.3946C371.428 24.8713 368.953 27.675 362.466 27.675H352.566C346.08 27.675 343.605 24.8713 343.605 17.3946V10.7487C343.605 3.27204 346.08 0.468292 352.566 0.468292H362.466ZM348.555 16.9792C348.555 21.0291 349.494 22.2752 352.822 22.2752H362.296C365.624 22.2752 366.563 21.0291 366.563 16.9792V11.1641C366.563 7.11421 365.624 5.8681 362.296 5.8681H352.822C349.494 5.8681 348.555 7.11421 348.555 11.1641V16.9792Z" fill="#D4BC6D"/>
</svg>
