<svg width="421" height="78" viewBox="0 0 421 78" fill="none" xmlns="http://www.w3.org/2000/svg">
<path d="M32.8557 77.1054H0V12.0311H12.2156V65.6333H20.7103V45.1287H32.8557V77.1054Z" fill="#D4BC6D"/>
<path d="M94.7062 77.1054H61.7803V45.1287H73.9959V65.6333H82.4906V12.0311H94.7062V77.1054Z" fill="#D4BC6D"/>
<path d="M31.2421 32.2061H19.0967V0.756775H73.5052V30.9534H61.2896V12.2288H31.2421V32.2061Z" fill="#D4BC6D"/>
<path d="M52.7966 8.00934H40.5811V77.3692H52.7966V8.00934Z" fill="#D4BC6D"/>
<path d="M118.882 35.9315C119.304 35.9315 119.444 36.1293 119.444 36.4589V42.8543H131.73V36.4589C131.73 36.0633 131.94 35.9315 132.291 35.9315H135.1C135.521 35.9315 135.731 36.1293 135.731 36.4589V52.6121C135.731 53.0077 135.521 53.1396 135.1 53.1396H132.291C131.87 53.1396 131.73 52.9418 131.73 52.6121V46.0849H119.444V52.6121C119.444 53.0077 119.233 53.1396 118.882 53.1396H116.074C115.653 53.1396 115.442 52.9418 115.442 52.6121V36.4589C115.442 36.0633 115.653 35.9315 116.074 35.9315H118.882Z" fill="#D4BC6D"/>
<path d="M153.986 35.9316C159.321 35.9316 161.357 37.7117 161.357 42.4588V46.6784C161.357 51.4255 159.321 53.2056 153.986 53.2056H145.842C140.507 53.2056 138.471 51.4255 138.471 46.6784V42.4588C138.471 37.7117 140.507 35.9316 145.842 35.9316H153.986ZM142.543 46.4147C142.543 48.986 143.315 49.7772 146.053 49.7772H153.845C156.583 49.7772 157.356 48.986 157.356 46.4147V42.7225C157.356 40.1512 156.583 39.36 153.845 39.36H146.053C143.315 39.36 142.543 40.1512 142.543 42.7225V46.4147Z" fill="#D4BC6D"/>
<path d="M169.292 35.9316C170.836 35.9316 171.398 36.2612 172.1 37.7777L177.576 49.5794C177.646 49.7772 177.786 49.7772 177.927 49.7772H178.208C178.418 49.7772 178.488 49.7113 178.559 49.5794L184.035 37.7777C184.737 36.1953 185.298 35.9316 186.843 35.9316H189.651C191.476 35.9316 191.968 36.5909 191.968 38.5029V52.6782C191.968 53.0738 191.757 53.2056 191.336 53.2056H188.668C188.247 53.2056 188.107 53.0078 188.107 52.6782V39.7556C188.107 39.5578 188.036 39.4919 187.896 39.4919H187.685C187.475 39.4919 187.404 39.5578 187.334 39.6897L181.999 50.7002C181.156 52.4804 180.384 53.1397 178.629 53.1397H177.365C175.61 53.1397 174.908 52.4804 173.995 50.7002L168.66 39.6897C168.59 39.5578 168.519 39.4919 168.309 39.4919H168.098C167.958 39.4919 167.888 39.5578 167.888 39.7556V52.6122C167.888 53.0078 167.677 53.1397 167.326 53.1397H164.658C164.237 53.1397 164.026 52.9419 164.026 52.6122V38.5029C164.026 36.6568 164.518 35.9316 166.343 35.9316H169.292Z" fill="#D4BC6D"/>
<path d="M213.588 35.9316C214.009 35.9316 214.22 36.1294 214.22 36.459V38.8326C214.22 39.2282 214.009 39.36 213.588 39.36H202.145C199.407 39.36 198.634 40.1512 198.634 42.7225V42.9862H213.448C213.869 42.9862 214.009 43.184 214.009 43.5137V45.4916C214.009 45.8872 213.799 46.0191 213.448 46.0191H198.634V46.4147C198.634 48.986 199.407 49.7772 202.145 49.7772H213.588C214.009 49.7772 214.22 49.975 214.22 50.3046V52.6122C214.22 53.0078 214.009 53.1397 213.588 53.1397H202.004C196.669 53.1397 194.633 51.3595 194.633 46.6125V42.4588C194.633 37.7117 196.669 35.9316 202.004 35.9316H213.588Z" fill="#D4BC6D"/>
<path d="M236.689 35.9316C237.11 35.9316 237.321 36.1294 237.321 36.459V38.8985C237.321 39.2941 237.11 39.4919 236.689 39.4919H228.475V52.6782C228.475 53.0738 228.265 53.2056 227.914 53.2056H225.035C224.614 53.2056 224.474 53.0078 224.474 52.6782V39.4919H216.189C215.768 39.4919 215.558 39.2941 215.558 38.8985V36.459C215.558 36.0634 215.768 35.9316 216.189 35.9316H236.689Z" fill="#D4BC6D"/>
<path d="M253.814 35.9316C259.15 35.9316 261.186 37.7117 261.186 42.4588V46.6784C261.186 51.4255 259.15 53.2056 253.814 53.2056H245.67C240.335 53.2056 238.299 51.4255 238.299 46.6784V42.4588C238.299 37.7117 240.335 35.9316 245.67 35.9316H253.814ZM242.371 46.4147C242.371 48.986 243.143 49.7772 245.881 49.7772H253.674C256.341 49.7772 257.184 48.986 257.184 46.4147V42.7225C257.184 40.1512 256.412 39.36 253.674 39.36H245.881C243.213 39.36 242.371 40.1512 242.371 42.7225V46.4147Z" fill="#D4BC6D"/>
<path d="M265.959 35.9316C266.17 35.9316 266.24 35.9975 266.31 36.2612L270.593 49.5135C270.593 49.6453 270.663 49.7113 270.803 49.7113H270.944C271.014 49.7113 271.084 49.7112 271.154 49.5135L275.437 37.3821C275.858 36.2612 276.42 35.9316 277.402 35.9316H280C281.123 35.9316 281.685 36.3272 282.106 37.3821L286.459 49.5135C286.529 49.6453 286.599 49.7113 286.669 49.7113H286.81C286.95 49.7113 286.95 49.7112 287.02 49.5135L291.162 36.2612C291.233 35.9975 291.373 35.9316 291.584 35.9316H295.094C295.375 35.9316 295.445 36.1953 295.305 36.525L290.25 51.3595C289.758 52.81 289.197 53.2056 288.214 53.2056H285.125C284.072 53.2056 283.651 52.81 283.089 51.3595L278.947 39.6237C278.947 39.4919 278.877 39.4259 278.736 39.4259H278.666C278.596 39.4259 278.455 39.4919 278.455 39.6237L274.313 51.3595C273.752 52.81 273.331 53.2056 272.277 53.2056H269.259C268.065 53.2056 267.574 52.876 267.082 51.3595L262.238 36.525C262.168 36.1953 262.168 35.9316 262.449 35.9316H265.959Z" fill="#D4BC6D"/>
<path d="M301.766 35.9316C303.451 35.9316 303.802 36.1294 304.785 37.3821L314.544 49.3816C314.614 49.5135 314.754 49.5794 314.895 49.5794H315.105C315.246 49.5794 315.316 49.5135 315.316 49.3157V36.459C315.316 36.0634 315.526 35.9316 315.877 35.9316H318.615C319.037 35.9316 319.177 36.1294 319.177 36.459V50.6343C319.177 52.6122 318.405 53.2056 316.79 53.2056H314.544C312.929 53.2056 312.578 53.0738 311.525 51.7551L301.837 39.6897C301.766 39.5578 301.626 39.4919 301.486 39.4919H301.275C301.134 39.4919 301.064 39.5578 301.064 39.7556V52.6122C301.064 53.0078 300.854 53.1397 300.503 53.1397H297.765C297.343 53.1397 297.133 52.9419 297.133 52.6122V38.5029C297.133 36.525 297.905 35.9316 299.52 35.9316H301.766Z" fill="#D4BC6D"/>
<path d="M333.989 35.9316C334.41 35.9316 334.55 36.1294 334.55 36.459V42.8544H346.836V36.459C346.836 36.0634 347.047 35.9316 347.398 35.9316H350.206C350.627 35.9316 350.838 36.1294 350.838 36.459V52.6122C350.838 53.0078 350.627 53.1397 350.206 53.1397H347.398C346.977 53.1397 346.836 52.9419 346.836 52.6122V46.085H334.55V52.6122C334.55 53.0078 334.34 53.1397 333.989 53.1397H331.181C330.759 53.1397 330.549 52.9419 330.549 52.6122V36.459C330.549 36.0634 330.759 35.9316 331.181 35.9316H333.989Z" fill="#D4BC6D"/>
<path d="M372.46 35.9316C372.881 35.9316 373.092 36.1294 373.092 36.459V38.8326C373.092 39.2282 372.881 39.36 372.46 39.36H361.017C358.279 39.36 357.507 40.1512 357.507 42.7225V42.9862H372.32C372.741 42.9862 372.881 43.184 372.881 43.5137V45.4916C372.881 45.8872 372.671 46.0191 372.32 46.0191H357.507V46.4147C357.507 48.986 358.279 49.7772 361.017 49.7772H372.46C372.881 49.7772 373.092 49.975 373.092 50.3046V52.6122C373.092 53.0078 372.881 53.1397 372.46 53.1397H360.876C355.541 53.1397 353.505 51.3595 353.505 46.6125V42.4588C353.505 37.7117 355.541 35.9316 360.876 35.9316H372.46Z" fill="#D4BC6D"/>
<path d="M390.502 35.9316C394.503 35.9316 396.118 37.7117 396.118 41.0083V42.3929C396.118 45.2279 394.995 46.8762 392.186 47.3377L396.68 52.5463C396.82 52.7441 396.82 53.1397 396.328 53.1397H392.959C392.537 53.1397 392.397 53.0738 392.257 52.81L388.115 47.6674H379.62V52.5463C379.62 52.9419 379.409 53.0738 379.058 53.0738H376.25C375.829 53.0738 375.618 52.876 375.618 52.5463V36.6568C375.618 36.1953 375.899 35.9316 376.39 35.9316H390.502ZM379.62 44.7005H389.659C391.414 44.7005 392.116 43.9752 392.116 42.5247V41.4698C392.116 40.0193 391.484 39.2941 389.659 39.2941H379.971C379.76 39.2941 379.62 39.36 379.62 39.5578V44.7005Z" fill="#D4BC6D"/>
<path d="M413.6 35.9316C418.936 35.9316 420.972 37.7117 420.972 42.4588V46.6784C420.972 51.4255 418.936 53.2056 413.6 53.2056H405.456C400.121 53.2056 398.085 51.4255 398.085 46.6784V42.4588C398.085 37.7117 400.121 35.9316 405.456 35.9316H413.6ZM402.157 46.4147C402.157 48.986 402.929 49.7772 405.667 49.7772H413.46C416.198 49.7772 416.97 48.986 416.97 46.4147V42.7225C416.97 40.1512 416.198 39.36 413.46 39.36H405.667C402.929 39.36 402.157 40.1512 402.157 42.7225V46.4147Z" fill="#D4BC6D"/>
</svg>
